<mxfile host="app.diagrams.net" modified="2022-07-05T01:17:02.140Z" agent="5.0 (Windows NT 10.0; Win64; x64) AppleWebKit/537.36 (KHTML, like Gecko) Chrome/103.0.0.0 Safari/537.36" etag="eEuxSABe5waq6KdAy8Bh" version="20.0.4" type="github">
  <diagram name="Page-1" id="2ca16b54-16f6-2749-3443-fa8db7711227">
    <mxGraphModel dx="1422" dy="794" grid="1" gridSize="10" guides="1" tooltips="1" connect="1" arrows="1" fold="1" page="1" pageScale="1" pageWidth="1100" pageHeight="850" background="none" math="0" shadow="0">
      <root>
        <mxCell id="0" />
        <mxCell id="1" parent="0" />
        <mxCell id="58F76h8W5zNsYDyyqagD-4" style="edgeStyle=orthogonalEdgeStyle;rounded=0;orthogonalLoop=1;jettySize=auto;html=1;entryX=-0.025;entryY=0.357;entryDx=0;entryDy=0;entryPerimeter=0;" edge="1" parent="1" source="58F76h8W5zNsYDyyqagD-2" target="58F76h8W5zNsYDyyqagD-3">
          <mxGeometry relative="1" as="geometry" />
        </mxCell>
        <mxCell id="58F76h8W5zNsYDyyqagD-2" value="&lt;p style=&quot;margin:0px;margin-top:4px;text-align:center;text-decoration:underline;&quot;&gt;&lt;b&gt;TipoUsuario&lt;/b&gt;&lt;/p&gt;&lt;hr&gt;&lt;p style=&quot;margin:0px;margin-left:8px;&quot;&gt;idTipo: Int&lt;/p&gt;&lt;p style=&quot;margin:0px;margin-left:8px;&quot;&gt;nombreTipo: String&lt;/p&gt;&lt;p style=&quot;margin:0px;margin-left:8px;&quot;&gt;&lt;br&gt;&lt;/p&gt;" style="verticalAlign=top;align=left;overflow=fill;fontSize=12;fontFamily=Helvetica;html=1;" vertex="1" parent="1">
          <mxGeometry x="120" y="80" width="160" height="90" as="geometry" />
        </mxCell>
        <mxCell id="58F76h8W5zNsYDyyqagD-3" value="&lt;p style=&quot;margin:0px;margin-top:4px;text-align:center;text-decoration:underline;&quot;&gt;&lt;b&gt;Usuario&lt;/b&gt;&lt;/p&gt;&lt;hr&gt;&lt;p style=&quot;margin:0px;margin-left:8px;&quot;&gt;PK-idUsuario: Int&lt;/p&gt;&lt;p style=&quot;margin:0px;margin-left:8px;&quot;&gt;FK-TipoUsuario: Int&lt;/p&gt;&lt;p style=&quot;margin:0px;margin-left:8px;&quot;&gt;nombreUsuario: String&lt;/p&gt;&lt;p style=&quot;margin:0px;margin-left:8px;&quot;&gt;fechaNac: Date&lt;/p&gt;&lt;p style=&quot;margin:0px;margin-left:8px;&quot;&gt;email: String&lt;/p&gt;&lt;p style=&quot;margin:0px;margin-left:8px;&quot;&gt;fono : Int&lt;/p&gt;" style="verticalAlign=top;align=left;overflow=fill;fontSize=12;fontFamily=Helvetica;html=1;" vertex="1" parent="1">
          <mxGeometry x="400" y="80" width="160" height="140" as="geometry" />
        </mxCell>
      </root>
    </mxGraphModel>
  </diagram>
</mxfile>
